<svg xmlns="http://www.w3.org/2000/svg" enable-background="new 0 0 512 512" viewBox="0 0 512 512"><path fill="#fd7b4a" d="M466.42,130.44L466.42,130.44C455.768,112.626,431.674,115.507,417,101
				c-14.008-13.85-18.434-45.251-35.44-55.42l0,0C361.41,33.52,339.37,24.28,316,18.4c-19.2-4.83-42.3,6.267-63,6.267
				S215.2,13.57,196,18.4c-23.37,5.88-45.41,15.12-65.56,27.18l0,0C113.233,55.868,103.134,78.72,89,92.773
				c-14.468,14.385-32.888,20.053-43.42,37.667v0c-12.196,20.378-21.181,42.18-26.933,64.663c-5.117,20,4.34,40.537,4.353,61.089
				c0.013,20.086-9.532,40.187-4.59,59.81c5.729,22.748,14.778,44.855,27.17,65.559v0C55.624,398.358,75.86,407.123,89.5,421
				c14.633,14.888,22.918,34.644,40.94,45.42v0c20.657,12.363,42.768,21.423,65.56,27.164c18.695,4.708,43.065-4.317,62.25-4.084
				c21.14,0.257,37.103,9.291,57.75,4.091c22.753-5.731,44.861-14.782,65.56-27.171v0c20.689-12.37,25.543-31.206,41.69-48.92
				c11.03-12.099,34.72-21.809,43.17-35.94v0c12.373-20.672,21.43-42.782,27.167-65.56c4.544-18.042-6.214-36.502-5.837-55
				c0.444-21.824,11.204-43.701,5.839-65.002C487.854,173.232,478.8,151.124,466.42,130.44z"/><circle cx="256" cy="256" r="165" fill="#eaf0fd"/><path fill="#fd435b" d="M493.6 196c9.87 39.234 9.87 80.765 0 120-18 0-32.6-14.6-32.6-32.6v-54.8C461 210.6 475.6 196 493.6 196zM466.42 130.44c-12.74 12.71-33.37 12.7-46.09-.02l-38.75-38.75c-12.72-12.72-12.73-33.35-.02-46.09C416.38 66.4 445.6 95.62 466.42 130.44zM420.33 381.58c12.72-12.72 33.35-12.73 46.09-.02-20.82 34.82-50.04 64.04-84.86 84.86-12.71-12.74-12.7-33.37.02-46.09L420.33 381.58zM316 18.4c0 18-14.6 32.6-32.6 32.6h-54.8c-18 0-32.6-14.6-32.6-32.6C235.234 8.53 276.765 8.53 316 18.4zM283.4 461c18 0 32.6 14.6 32.6 32.6-39.234 9.87-80.765 9.87-120 0 0-18 14.6-32.6 32.6-32.6H283.4zM130.44 45.58c12.71 12.74 12.7 33.37-.02 46.09l-38.75 38.75c-12.72 12.72-33.35 12.73-46.09.02C66.4 95.62 95.62 66.4 130.44 45.58zM130.42 420.33c12.72 12.72 12.73 33.35.02 46.09-34.82-20.82-64.04-50.04-84.86-84.86 12.74-12.71 33.37-12.7 46.09.02L130.42 420.33zM51 228.6v54.8c0 18-14.6 32.6-32.6 32.6-9.87-39.234-9.87-80.765 0-120C36.4 196 51 210.6 51 228.6z"/><path fill="#4d5086" d="M256,276.89l-21.4,21.39c-14.235,14.255-37.41,14.28-51.67,0
				c-14.27-14.26-14.27-37.39,0-51.67l65.999-65.999c3.905-3.905,10.237-3.905,14.142,0l65.999,65.999
				c14.27,14.28,14.27,37.41,0,51.67c-14.235,14.255-37.41,14.28-51.67,0L256,276.89z"/><path d="M263.071,166.465c-3.905-3.903-10.237-3.904-14.143,0l-73.074,73.076
				c-18.136,18.153-18.134,47.677,0.003,65.815c18.146,18.147,47.672,18.147,65.818,0l4.324-4.324v37.433c0,5.522,4.477,10,10,10
				c5.522,0,10-4.478,10-10v-37.433l4.324,4.324c18.145,18.145,47.671,18.147,65.818,0c18.137-18.138,18.139-47.662,0-65.819
				L263.071,166.465z M322,291.213c-10.348,10.348-27.185,10.348-37.533,0l-21.15-21.15c-3.964-4.264-10.664-4.27-14.634,0
				l-21.15,21.15c-10.348,10.348-27.186,10.348-37.533,0c-10.344-10.343-10.342-27.183,0-37.534l66-66l65.997,65.998
				C332.342,264.03,332.344,280.87,322,291.213z"/><path d="M256,81c-96.495,0-175,78.505-175,175s78.505,175,175,175s175-78.505,175-175S352.495,81,256,81z
				 M256,411c-85.467,0-155-69.533-155-155c0-85.467,69.533-155,155-155s155,69.533,155,155C411,341.467,341.467,411,256,411z"/><path d="M256,1C115.07,1,1,115.05,1,256c0,140.932,114.049,255,255,255c140.932,0,255-114.049,255-255
				C511,115.07,396.951,1,256,1z M384.156,59.118c27.395,17.893,50.841,41.34,68.733,68.736c-8.518,3.958-18.673,2.305-25.485-4.507
				l-38.75-38.749C381.773,77.717,380.291,67.476,384.156,59.118z M304.655,26.078C301.505,34.771,293.168,41,283.4,41H228.6
				c-9.767,0-18.105-6.229-21.255-14.922C238.614,19.469,271.855,19.145,304.655,26.078z M127.844,59.118
				c3.865,8.358,2.383,18.599-4.497,25.479l-38.75,38.75c-6.802,6.801-16.955,8.471-25.485,4.507
				C77.003,100.458,100.45,77.011,127.844,59.118z M26.078,207.345C34.772,210.495,41,218.833,41,228.6v54.8
				c0,9.767-6.229,18.105-14.922,21.255C19.469,273.385,19.146,240.145,26.078,207.345z M127.844,452.882
				c-27.391-17.891-50.835-41.335-68.726-68.726c8.358-3.865,18.599-2.382,25.479,4.498l38.75,38.75
				C130.227,434.284,131.709,444.525,127.844,452.882z M207.345,485.922C210.495,477.228,218.832,471,228.6,471H283.4
				c9.767,0,18.105,6.228,21.255,14.922C273.321,492.545,240.08,492.841,207.345,485.922z M384.156,452.882
				c-3.865-8.357-2.383-18.598,4.497-25.479l38.75-38.75c6.879-6.881,17.121-8.364,25.479-4.498
				C434.991,411.547,411.547,434.991,384.156,452.882z M463.141,366.89c-16.064-8.396-36.401-5.858-49.88,7.621l-38.75,38.75
				c-13.478,13.478-16.018,33.815-7.621,49.88c-13.535,7.275-27.861,13.257-42.813,17.791C318.671,463.609,302.48,451,283.4,451
				H228.6c-19.08,0-35.27,12.609-40.676,29.932c-14.951-4.534-29.278-10.516-42.813-17.791c8.396-16.065,5.857-36.402-7.621-49.88
				l-38.75-38.75c-13.478-13.478-33.816-16.017-49.88-7.621c-7.275-13.535-13.258-27.861-17.792-42.813
				C48.391,318.671,61,302.48,61,283.4v-54.8c0-19.08-12.609-35.271-29.932-40.677c4.533-14.948,10.513-29.27,17.786-42.803
				c15.854,8.324,36.215,6.04,49.886-7.631l38.75-38.75c13.478-13.478,16.018-33.816,7.621-49.88
				c13.535-7.275,27.861-13.257,42.813-17.791C193.329,48.391,209.52,61,228.6,61H283.4c19.08,0,35.27-12.609,40.677-29.932
				c14.952,4.534,29.278,10.516,42.813,17.791c-8.396,16.065-5.857,36.402,7.621,49.881l38.75,38.749
				c13.654,13.655,34.014,15.964,49.885,7.632c7.273,13.532,13.253,27.855,17.786,42.803C463.609,193.329,451,209.52,451,228.6v54.8
				c0,19.08,12.609,35.27,29.932,40.677C476.398,339.029,470.416,353.355,463.141,366.89z M471,283.4v-54.8
				c0-9.767,6.228-18.105,14.922-21.255c6.609,31.27,6.933,64.51,0,97.31C477.228,301.505,471,293.168,471,283.4z"/></svg>